# xmcd
#
# Track frame offsets:
# 150
# 13000
# 22957
# 30158
# 42631
# 53512
# 68883
# 81501
# 92506
# 103117
# 114061
# 123312
#
# Disc length: 1776 seconds
#
#
# Revision: 1
# Processed by: cddbd v1.5.2PL0 Copyright (c) Steve Scherf et al.
# Submitted via: FreeRIP 2.90 
#
DISCID=8a06ee0c
DTITLE=Cascatinha e Inhana - Cruz de Ouro
DYEAR=1970
DGENRE=Sertaneja
TTITLE0=Cruz de ouro
TTITLE1=O canto do jacana
TTITLE2=Tudo certo em seu lugar
TTITLE3=No silencio da noite
TTITLE4=Mil beijos depois
TTITLE5=Primavera vazia
TTITLE6=Festival de coracoes
TTITLE7=Declaracao de amor
TTITLE8=Agora sou feliz
TTITLE9=Amor a 40 graus
TTITLE10=Nosso noivado
TTITLE11=Volta querida
EXTD=
EXTT0=
EXTT1=
EXTT2=
EXTT3=
EXTT4=
EXTT5=
EXTT6=
EXTT7=
EXTT8=
EXTT9=
EXTT10=
EXTT11=
PLAYORDER=
